<mxfile host="app.diagrams.net" modified="2023-06-01T16:15:50.475Z" agent="Mozilla/5.0 (Windows NT 10.0; Win64; x64) AppleWebKit/537.36 (KHTML, like Gecko) Chrome/113.0.0.0 Safari/537.36" etag="1UPBUhmhHkrfNKa-euEc" version="21.3.6" type="device">
  <diagram name="Страница 1" id="DWhiW3FEvDL6IGDs8TPN">
    <mxGraphModel dx="1434" dy="739" grid="1" gridSize="10" guides="1" tooltips="1" connect="1" arrows="1" fold="1" page="1" pageScale="1" pageWidth="827" pageHeight="1169" math="0" shadow="0">
      <root>
        <mxCell id="0" />
        <mxCell id="1" parent="0" />
        <mxCell id="vjeBfh7rPFk6wVH2Wt61-1" value="Работа сайта Книжный магазин" style="rounded=0;whiteSpace=wrap;html=1;" vertex="1" parent="1">
          <mxGeometry x="310" y="240" width="200" height="120" as="geometry" />
        </mxCell>
        <mxCell id="vjeBfh7rPFk6wVH2Wt61-2" value="" style="endArrow=classic;html=1;rounded=0;" edge="1" parent="1">
          <mxGeometry width="50" height="50" relative="1" as="geometry">
            <mxPoint x="340" y="150" as="sourcePoint" />
            <mxPoint x="340" y="240" as="targetPoint" />
          </mxGeometry>
        </mxCell>
        <mxCell id="vjeBfh7rPFk6wVH2Wt61-3" value="" style="endArrow=classic;html=1;rounded=0;" edge="1" parent="1">
          <mxGeometry width="50" height="50" relative="1" as="geometry">
            <mxPoint x="470" y="150" as="sourcePoint" />
            <mxPoint x="470" y="240" as="targetPoint" />
          </mxGeometry>
        </mxCell>
        <mxCell id="vjeBfh7rPFk6wVH2Wt61-4" value="" style="endArrow=classic;html=1;rounded=0;" edge="1" parent="1">
          <mxGeometry width="50" height="50" relative="1" as="geometry">
            <mxPoint x="120" y="300" as="sourcePoint" />
            <mxPoint x="310" y="299.5" as="targetPoint" />
          </mxGeometry>
        </mxCell>
        <mxCell id="vjeBfh7rPFk6wVH2Wt61-5" value="" style="endArrow=classic;html=1;rounded=0;" edge="1" parent="1">
          <mxGeometry width="50" height="50" relative="1" as="geometry">
            <mxPoint x="510" y="278" as="sourcePoint" />
            <mxPoint x="680" y="278.5" as="targetPoint" />
          </mxGeometry>
        </mxCell>
        <mxCell id="vjeBfh7rPFk6wVH2Wt61-6" value="" style="endArrow=classic;html=1;rounded=0;" edge="1" parent="1">
          <mxGeometry width="50" height="50" relative="1" as="geometry">
            <mxPoint x="340" y="460" as="sourcePoint" />
            <mxPoint x="340" y="360" as="targetPoint" />
          </mxGeometry>
        </mxCell>
        <mxCell id="vjeBfh7rPFk6wVH2Wt61-7" value="" style="endArrow=classic;html=1;rounded=0;" edge="1" parent="1">
          <mxGeometry width="50" height="50" relative="1" as="geometry">
            <mxPoint x="480" y="460" as="sourcePoint" />
            <mxPoint x="480" y="360" as="targetPoint" />
          </mxGeometry>
        </mxCell>
        <mxCell id="vjeBfh7rPFk6wVH2Wt61-8" value="Покупатель" style="text;html=1;align=center;verticalAlign=middle;resizable=0;points=[];autosize=1;strokeColor=none;fillColor=none;" vertex="1" parent="1">
          <mxGeometry x="250" y="408" width="90" height="30" as="geometry" />
        </mxCell>
        <mxCell id="vjeBfh7rPFk6wVH2Wt61-9" value="Компьютер" style="text;html=1;align=center;verticalAlign=middle;resizable=0;points=[];autosize=1;strokeColor=none;fillColor=none;" vertex="1" parent="1">
          <mxGeometry x="480" y="408" width="90" height="30" as="geometry" />
        </mxCell>
        <mxCell id="vjeBfh7rPFk6wVH2Wt61-11" value="" style="endArrow=classic;html=1;rounded=0;fontStyle=1" edge="1" parent="1">
          <mxGeometry width="50" height="50" relative="1" as="geometry">
            <mxPoint x="510" y="320" as="sourcePoint" />
            <mxPoint x="680" y="320.5" as="targetPoint" />
          </mxGeometry>
        </mxCell>
        <mxCell id="vjeBfh7rPFk6wVH2Wt61-12" value="Карточки товаров" style="text;html=1;align=center;verticalAlign=middle;resizable=0;points=[];autosize=1;strokeColor=none;fillColor=none;" vertex="1" parent="1">
          <mxGeometry x="530" y="248" width="120" height="30" as="geometry" />
        </mxCell>
        <mxCell id="vjeBfh7rPFk6wVH2Wt61-13" value="Книги" style="text;html=1;align=center;verticalAlign=middle;resizable=0;points=[];autosize=1;strokeColor=none;fillColor=none;" vertex="1" parent="1">
          <mxGeometry x="565" y="298" width="50" height="30" as="geometry" />
        </mxCell>
        <mxCell id="vjeBfh7rPFk6wVH2Wt61-14" value="Онлайн заказы" style="text;html=1;align=center;verticalAlign=middle;resizable=0;points=[];autosize=1;strokeColor=none;fillColor=none;" vertex="1" parent="1">
          <mxGeometry x="470" y="170" width="110" height="30" as="geometry" />
        </mxCell>
        <mxCell id="vjeBfh7rPFk6wVH2Wt61-15" value="Данные пользователя" style="text;html=1;align=center;verticalAlign=middle;resizable=0;points=[];autosize=1;strokeColor=none;fillColor=none;" vertex="1" parent="1">
          <mxGeometry x="70" y="260" width="150" height="30" as="geometry" />
        </mxCell>
        <mxCell id="vjeBfh7rPFk6wVH2Wt61-16" value="Поступление новых книг" style="text;html=1;align=center;verticalAlign=middle;resizable=0;points=[];autosize=1;strokeColor=none;fillColor=none;" vertex="1" parent="1">
          <mxGeometry x="180" y="170" width="160" height="30" as="geometry" />
        </mxCell>
        <mxCell id="vjeBfh7rPFk6wVH2Wt61-18" value="" style="whiteSpace=wrap;html=1;aspect=fixed;fillColor=none;" vertex="1" parent="1">
          <mxGeometry x="90" y="80" width="620" height="620" as="geometry" />
        </mxCell>
        <mxCell id="vjeBfh7rPFk6wVH2Wt61-19" value="Title: Модель IDEF0 для инфомрационной системы" style="rounded=0;whiteSpace=wrap;html=1;fillColor=none;" vertex="1" parent="1">
          <mxGeometry x="80" y="650" width="620" height="30" as="geometry" />
        </mxCell>
        <mxCell id="vjeBfh7rPFk6wVH2Wt61-20" value="" style="endArrow=none;html=1;rounded=0;exitX=0.75;exitY=1;exitDx=0;exitDy=0;entryX=0.75;entryY=0;entryDx=0;entryDy=0;" edge="1" parent="1" source="vjeBfh7rPFk6wVH2Wt61-19" target="vjeBfh7rPFk6wVH2Wt61-19">
          <mxGeometry width="50" height="50" relative="1" as="geometry">
            <mxPoint x="290" y="570" as="sourcePoint" />
            <mxPoint x="320" y="540" as="targetPoint" />
          </mxGeometry>
        </mxCell>
        <mxCell id="vjeBfh7rPFk6wVH2Wt61-23" value="" style="endArrow=none;html=1;rounded=0;entryX=0.195;entryY=0;entryDx=0;entryDy=0;entryPerimeter=0;" edge="1" parent="1" target="vjeBfh7rPFk6wVH2Wt61-19">
          <mxGeometry width="50" height="50" relative="1" as="geometry">
            <mxPoint x="200" y="680" as="sourcePoint" />
            <mxPoint x="250" y="630" as="targetPoint" />
          </mxGeometry>
        </mxCell>
      </root>
    </mxGraphModel>
  </diagram>
</mxfile>
